<svg xmlns="http://www.w3.org/2000/svg" xmlns:xlink="http://www.w3.org/1999/xlink" style="height: 0; position: absolute">
  <symbol id="codepen" viewBox="0 0 16 16"><path d="M15.988 5.443c-.004-.02-.007-.04-.012-.058l-.01-.033c-.006-.017-.012-.034-.02-.05-.003-.012-.01-.023-.014-.034l-.023-.045-.02-.032-.03-.04-.024-.03c-.01-.013-.022-.026-.034-.038l-.027-.027-.04-.032-.03-.024-.012-.01L8.38.117c-.23-.155-.53-.155-.76 0L.305 4.99.296 5c-.012.007-.022.015-.032.023-.014.01-.027.02-.04.032l-.027.027-.034.037-.024.03-.03.04c-.006.012-.013.022-.02.033l-.023.045-.015.034c-.007.016-.012.033-.018.05l-.01.032c-.005.02-.01.038-.012.058l-.006.03C.002 5.5 0 5.53 0 5.56v4.875c0 .03.002.06.006.09l.007.03c.003.02.006.04.013.058l.01.033c.006.018.01.035.018.05l.015.033c.006.016.014.03.023.047l.02.03c.008.016.018.03.03.042.007.01.014.02.023.03.01.012.02.025.034.036.01.01.018.02.028.026l.04.033.03.023.01.01 7.31 4.876c.116.078.248.117.382.116.134 0 .266-.04.38-.116l7.314-4.875.01-.01c.012-.007.022-.015.032-.023.014-.01.027-.02.04-.032l.027-.027.034-.037.024-.03.03-.04.02-.032.023-.046.015-.033.018-.052.01-.033c.005-.02.01-.038.013-.058 0-.01.003-.02.004-.03.004-.03.006-.06.006-.09V5.564c0-.03-.002-.06-.006-.09l-.007-.03zM8 9.626L5.568 8 8 6.374 10.432 8 8 9.626zM7.312 5.18l-2.98 1.993-2.406-1.61 5.386-3.59v3.206zM3.095 8l-1.72 1.15v-2.3L3.095 8zm1.237.828l2.98 1.993v3.208l-5.386-3.59 2.406-1.61zm4.355 1.993l2.98-1.993 2.407 1.61-5.387 3.59v-3.206zM12.905 8l1.72-1.15v2.3L12.905 8zm-1.237-.827L8.688 5.18V1.97l5.386 3.59-2.406 1.61z" fill-rule="nonzero"/></symbol>
  <symbol id="dribbble" viewBox="0 0 16 16"><path d="M8 16c-4.41 0-8-3.59-8-8s3.59-8 8-8 8 3.59 8 8-3.59 8-8 8zm6.747-6.905c-.234-.074-2.115-.635-4.257-.292.894 2.456 1.258 4.456 1.328 4.872 1.533-1.037 2.624-2.68 2.93-4.58zM10.67 14.3c-.102-.6-.5-2.688-1.46-5.18l-.044.014C5.312 10.477 3.93 13.15 3.806 13.4c1.158.905 2.614 1.444 4.194 1.444.947 0 1.85-.194 2.67-.543zm-7.747-1.72c.155-.266 2.03-3.37 5.555-4.51.09-.03.18-.056.27-.08-.173-.39-.36-.778-.555-1.16C4.78 7.85 1.47 7.807 1.17 7.8l-.003.208c0 1.755.665 3.358 1.756 4.57zM1.31 6.61c.307.005 3.122.017 6.318-.832-1.132-2.012-2.353-3.705-2.533-3.952-1.912.902-3.34 2.664-3.784 4.785zM6.4 1.368c.188.253 1.43 1.943 2.548 4 2.43-.91 3.46-2.293 3.582-2.468C11.323 1.827 9.736 1.176 8 1.176c-.55 0-1.087.066-1.6.19zm6.89 2.322c-.145.194-1.29 1.662-3.816 2.694.16.325.31.656.453.99.05.117.1.235.147.352 2.274-.286 4.533.172 4.758.22-.015-1.613-.59-3.094-1.543-4.257z"/></symbol>
  <symbol id="designernews" viewBox="0 0 16 16"><path d="M7.514 7.988c0-2.555-1.57-4.287-4.56-4.287H0v8.6h3.016c2.903 0 4.498-1.75 4.498-4.31zM5.37 8c0 1.844-.946 2.642-2.467 2.642H2.13V5.358h.773C4.36 5.358 5.37 6.193 5.37 8zM16 12.3V3.7h-1.98v4.81L10.853 3.7h-2.07v8.6h1.982V7.152l3.39 5.146H16z"/></symbol>
  <symbol id="facebook" viewBox="0 0 16 16"><path d="M15.117 0H.883C.395 0 0 .395 0 .883v14.234c0 .488.395.883.883.883h7.663V9.804H6.46V7.39h2.086V5.607c0-2.066 1.262-3.19 3.106-3.19.883 0 1.642.064 1.863.094v2.16h-1.28c-1 0-1.195.476-1.195 1.176v1.54h2.39l-.31 2.416h-2.08V16h4.077c.488 0 .883-.395.883-.883V.883C16 .395 15.605 0 15.117 0" fill-rule="nonzero"/></symbol>
  <symbol id="flickr" viewBox="0 0 16 16"><path d="M0 8c0 2.05 1.662 3.71 3.71 3.71 2.05 0 3.713-1.66 3.713-3.71S5.76 4.29 3.71 4.29C1.663 4.29 0 5.95 0 8zm8.577 0c0 2.05 1.662 3.71 3.712 3.71C14.337 11.71 16 10.05 16 8s-1.662-3.71-3.71-3.71c-2.05 0-3.713 1.66-3.713 3.71z"/></symbol>
  <symbol id="github" viewBox="0 0 16 16"><path d="M8 0C3.58 0 0 3.582 0 8c0 3.535 2.292 6.533 5.47 7.59.4.075.547-.172.547-.385 0-.19-.007-.693-.01-1.36-2.226.483-2.695-1.073-2.695-1.073-.364-.924-.89-1.17-.89-1.17-.725-.496.056-.486.056-.486.803.056 1.225.824 1.225.824.714 1.223 1.873.87 2.33.665.072-.517.278-.87.507-1.07-1.777-.2-3.644-.888-3.644-3.953 0-.873.31-1.587.823-2.147-.083-.202-.358-1.015.077-2.117 0 0 .672-.215 2.2.82.638-.178 1.323-.266 2.003-.27.68.004 1.364.092 2.003.27 1.527-1.035 2.198-.82 2.198-.82.437 1.102.163 1.915.08 2.117.513.56.823 1.274.823 2.147 0 3.073-1.87 3.75-3.653 3.947.287.246.543.735.543 1.48 0 1.07-.01 1.933-.01 2.195 0 .215.144.463.55.385C13.71 14.53 16 11.534 16 8c0-4.418-3.582-8-8-8"/></symbol>
  <symbol id="hackernews" viewBox="0 0 16 16"><path d="M0 0v16h16V0H0zm8.92 8.96v3H7.25v-3l-2.75-5h1.96l1.66 3.48L9.7 3.96h1.88l-2.66 5z"/></symbol>
  <symbol id="instagram" viewBox="0 0 16 16"><path d="M8 0C5.827 0 5.555.01 4.702.048 3.85.088 3.27.222 2.76.42c-.526.204-.973.478-1.417.923-.445.444-.72.89-.923 1.417-.198.51-.333 1.09-.372 1.942C.008 5.555 0 5.827 0 8s.01 2.445.048 3.298c.04.852.174 1.433.372 1.942.204.526.478.973.923 1.417.444.445.89.72 1.417.923.51.198 1.09.333 1.942.372.853.04 1.125.048 3.298.048s2.445-.01 3.298-.048c.852-.04 1.433-.174 1.942-.372.526-.204.973-.478 1.417-.923.445-.444.72-.89.923-1.417.198-.51.333-1.09.372-1.942.04-.853.048-1.125.048-3.298s-.01-2.445-.048-3.298c-.04-.852-.174-1.433-.372-1.942-.204-.526-.478-.973-.923-1.417-.444-.445-.89-.72-1.417-.923-.51-.198-1.09-.333-1.942-.372C10.445.008 10.173 0 8 0zm0 1.44c2.136 0 2.39.01 3.233.048.78.036 1.203.166 1.485.276.374.145.64.318.92.598.28.28.453.546.598.92.11.282.24.705.276 1.485.038.844.047 1.097.047 3.233s-.01 2.39-.048 3.233c-.036.78-.166 1.203-.276 1.485-.145.374-.318.64-.598.92-.28.28-.546.453-.92.598-.282.11-.705.24-1.485.276-.844.038-1.097.047-3.233.047s-2.39-.01-3.233-.048c-.78-.036-1.203-.166-1.485-.276-.374-.145-.64-.318-.92-.598-.28-.28-.453-.546-.598-.92-.11-.282-.24-.705-.276-1.485C1.45 10.39 1.44 10.136 1.44 8s.01-2.39.048-3.233c.036-.78.166-1.203.276-1.485.145-.374.318-.64.598-.92.28-.28.546-.453.92-.598.282-.11.705-.24 1.485-.276C5.61 1.45 5.864 1.44 8 1.44zm0 2.452c-2.27 0-4.108 1.84-4.108 4.108 0 2.27 1.84 4.108 4.108 4.108 2.27 0 4.108-1.84 4.108-4.108 0-2.27-1.84-4.108-4.108-4.108zm0 6.775c-1.473 0-2.667-1.194-2.667-2.667 0-1.473 1.194-2.667 2.667-2.667 1.473 0 2.667 1.194 2.667 2.667 0 1.473-1.194 2.667-2.667 2.667zm5.23-6.937c0 .53-.43.96-.96.96s-.96-.43-.96-.96.43-.96.96-.96.96.43.96.96z"/></symbol>
  <symbol id="linkedin" viewBox="0 0 16 16"><path d="M13.632 13.635h-2.37V9.922c0-.886-.018-2.025-1.234-2.025-1.235 0-1.424.964-1.424 1.96v3.778h-2.37V6H8.51V7.04h.03c.318-.6 1.092-1.233 2.247-1.233 2.4 0 2.845 1.58 2.845 3.637v4.188zM3.558 4.955c-.762 0-1.376-.617-1.376-1.377 0-.758.614-1.375 1.376-1.375.76 0 1.376.617 1.376 1.375 0 .76-.617 1.377-1.376 1.377zm1.188 8.68H2.37V6h2.376v7.635zM14.816 0H1.18C.528 0 0 .516 0 1.153v13.694C0 15.484.528 16 1.18 16h13.635c.652 0 1.185-.516 1.185-1.153V1.153C16 .516 15.467 0 14.815 0z" fill-rule="nonzero"/></symbol>
  <symbol id="medium" viewBox="0 0 16 16"><path d="M11.824 12.628l-.276.45.798.398 2.744 1.372c.15.076.294.11.418.11.278 0 .467-.177.467-.492V5.883l-4.15 6.745zm4.096-8.67c-.004-.003 0-.01-.003-.012l-4.825-2.412c-.06-.03-.123-.038-.187-.044-.016 0-.03-.01-.047-.01-.184 0-.368.092-.467.254l-.24.39-.5.814-1.89 3.08 1.89 3.076.5.813.5.812.59.95 4.71-7.64c.02-.03.01-.06-.02-.08zm-6.27 7.045L7.17 6.97l-.295-.477-.294-.477-.25-.416v4.867l3.32 1.663.5.25.5.25-.5-.813-.5-.813zM.737 1.68L.59 1.608c-.085-.042-.166-.062-.24-.062-.206 0-.35.16-.35.427v10.162c0 .272.2.594.442.716l4.145 2.08c.107.06.208.08.3.08.257 0 .438-.2.438-.53V4.01c0-.02-.012-.04-.03-.047L.738 1.68z"/></symbol>
  <symbol id="pinterest" viewBox="0 0 16 16"><path d="M8 0C3.582 0 0 3.582 0 8c0 3.39 2.108 6.285 5.084 7.45-.07-.633-.133-1.604.028-2.295.146-.625.938-3.977.938-3.977s-.24-.48-.24-1.188c0-1.11.646-1.943 1.448-1.943.683 0 1.012.513 1.012 1.127 0 .687-.436 1.713-.662 2.664-.19.797.4 1.445 1.185 1.445 1.42 0 2.514-1.498 2.514-3.662 0-1.915-1.376-3.254-3.342-3.254-2.276 0-3.61 1.707-3.61 3.472 0 .687.263 1.424.593 1.825.066.08.075.15.057.23-.06.252-.196.796-.223.907-.035.146-.115.178-.268.107-.998-.465-1.624-1.926-1.624-3.1 0-2.524 1.834-4.84 5.287-4.84 2.774 0 4.932 1.977 4.932 4.62 0 2.757-1.74 4.977-4.153 4.977-.81 0-1.572-.422-1.833-.92l-.5 1.902c-.18.695-.667 1.566-.994 2.097.75.232 1.545.357 2.37.357 4.417 0 8-3.582 8-8s-3.583-8-8-8z" fill-rule="nonzero"/></symbol>
  <symbol id="rss" viewBox="0 0 16 16"><path d="M12.8 16C12.8 8.978 7.022 3.2 0 3.2V0c8.777 0 16 7.223 16 16h-3.2zM2.194 11.61c1.21 0 2.195.985 2.195 2.196 0 1.21-.985 2.194-2.196 2.194C.984 16 0 15.017 0 13.806c0-1.21.983-2.195 2.194-2.195zM10.606 16h-3.11c0-4.113-3.383-7.497-7.496-7.497v-3.11c5.818 0 10.606 4.79 10.606 10.607z"/></symbol>
  <symbol id="reddit" viewBox="0 0 16 16"><path d="M1.473 9.368c-.04.185-.06.374-.06.566 0 2.3 2.94 4.173 6.554 4.173 3.613 0 6.553-1.872 6.553-4.173 0-.183-.02-.364-.055-.54l-.01-.022c-.013-.036-.02-.073-.02-.11-.2-.784-.745-1.497-1.533-2.072-.03-.01-.058-.026-.084-.047-.017-.013-.03-.028-.044-.043-1.198-.824-2.91-1.34-4.807-1.34-1.88 0-3.576.506-4.772 1.315-.01.012-.02.023-.033.033-.026.022-.056.04-.087.05-.805.576-1.364 1.293-1.572 2.086 0 .038-.01.077-.025.114l-.005.01zM8 13.003c-1.198 0-2.042-.26-2.58-.8-.116-.116-.116-.305 0-.422.117-.11.307-.11.424 0 .42.42 1.125.63 2.155.63 1.03 0 1.73-.2 2.15-.62.11-.11.3-.11.42 0 .11.12.11.31 0 .43-.54.54-1.38.8-2.58.8zM5.592 7.945c-.61 0-1.12.51-1.12 1.12 0 .608.51 1.102 1.12 1.102.61 0 1.103-.494 1.103-1.102 0-.61-.494-1.12-1.103-1.12zm4.83 0c-.61 0-1.12.51-1.12 1.12 0 .608.51 1.102 1.12 1.102.61 0 1.103-.494 1.103-1.102 0-.61-.494-1.12-1.103-1.12zM13.46 6.88c.693.556 1.202 1.216 1.462 1.94.3-.225.48-.578.48-.968 0-.67-.545-1.214-1.214-1.214-.267 0-.52.087-.728.243zM1.812 6.64c-.67 0-1.214.545-1.214 1.214 0 .363.16.7.43.927.268-.72.782-1.37 1.478-1.92-.202-.14-.443-.22-.694-.22zm6.155 8.067c-3.944 0-7.152-2.14-7.152-4.77 0-.183.016-.363.046-.54-.53-.33-.86-.91-.86-1.545 0-1 .82-1.812 1.82-1.812.45 0 .87.164 1.2.455 1.24-.796 2.91-1.297 4.75-1.33l1.21-3.69.27.063s.01 0 .01.002l2.82.663c.23-.533.76-.908 1.38-.908.82 0 1.49.67 1.49 1.492 0 .823-.67 1.492-1.49 1.492s-1.49-.67-1.49-1.49L9.4 2.18l-.98 2.99c1.77.07 3.37.57 4.57 1.35.33-.31.764-.48 1.225-.48 1 0 1.814.81 1.814 1.81 0 .66-.36 1.26-.92 1.58.02.17.04.33.04.5-.01 2.63-3.21 4.77-7.16 4.77zM13.43 1.893c-.494 0-.895.4-.895.894 0 .493.4.894.894.894.49 0 .89-.4.89-.89s-.4-.89-.9-.89z"/></symbol>
  <symbol id="skype" viewBox="0 0 16 16"><path d="M8.035 12.6c-2.685 0-3.885-1.322-3.885-2.313 0-.51.374-.865.89-.865 1.15 0 .85 1.653 2.995 1.653 1.096 0 1.703-.597 1.703-1.208 0-.368-.18-.775-.904-.954l-2.387-.597C4.524 7.833 4.175 6.79 4.175 5.812c0-2.034 1.91-2.798 3.704-2.798 1.65 0 3.6.916 3.6 2.136 0 .523-.452.827-.97.827-.98 0-.798-1.36-2.773-1.36-.98 0-1.523.444-1.523 1.08 0 .636.774.84 1.446.993l1.767.392c1.936.433 2.427 1.566 2.427 2.633 0 1.652-1.266 2.886-3.82 2.886m7.4-3.264l-.014.084-.028-.16c.015.024.028.05.042.076.082-.45.125-.912.125-1.373 0-1.023-.2-2.014-.595-2.948-.38-.902-.925-1.712-1.62-2.407-.692-.696-1.5-1.242-2.4-1.623C10.015.59 9.025.39 8.005.39c-.48 0-.963.045-1.43.135H6.57l.08.04-.16-.023.08-.016C5.927.183 5.205 0 4.472 0 3.278 0 2.155.466 1.31 1.313.465 2.16 0 3.286 0 4.483c0 .763.195 1.512.563 2.175l.013-.083.028.16c-.015-.026-.027-.052-.04-.077-.076.43-.115.867-.115 1.305 0 1.022.2 2.014.593 2.948.38.903.925 1.713 1.62 2.408.693.695 1.5 1.242 2.4 1.623.932.397 1.92.597 2.94.597.445 0 .89-.04 1.325-.118l-.077-.043.162.028-.084.014c.67.378 1.426.58 2.2.58 1.194 0 2.317-.466 3.162-1.313.845-.846 1.31-1.972 1.31-3.17 0-.765-.197-1.517-.566-2.18" fill-rule="nonzero"/></symbol>
  <symbol id="tumblr" viewBox="0 0 16 16"><path d="M9.708 16c-3.396 0-4.687-2.504-4.687-4.274V6.498H3.403V4.432C5.83 3.557 6.412 1.368 6.55.12c.01-.086.077-.12.115-.12H9.01v4.076h3.2v2.422H8.997v4.98c.01.667.25 1.58 1.472 1.58h.067c.424-.012.994-.136 1.29-.278l.77 2.283c-.288.424-1.594.916-2.77.936h-.12z" fill-rule="nonzero"/></symbol>
  <symbol id="twitch" viewBox="0 0 16 16"><g fill-rule="nonzero"><path d="M1.393 0L.35 2.783v11.13h3.824V16h2.088l2.085-2.088h3.13L15.65 9.74V0H1.394zm1.39 1.39H14.26v7.653l-2.435 2.435H8l-2.085 2.085v-2.085H2.783V1.39z"/><path d="M6.61 8.348H8V4.175H6.61v4.173zm3.824 0h1.39V4.175h-1.39v4.173z"/></g></symbol>
  <symbol id="twitter" viewBox="0 0 16 16"><path d="M16 3.038c-.59.26-1.22.437-1.885.517.677-.407 1.198-1.05 1.443-1.816-.634.375-1.337.648-2.085.795-.598-.638-1.45-1.036-2.396-1.036-1.812 0-3.282 1.468-3.282 3.28 0 .258.03.51.085.75C5.152 5.39 2.733 4.084 1.114 2.1.83 2.583.67 3.147.67 3.75c0 1.14.58 2.143 1.46 2.732-.538-.017-1.045-.165-1.487-.41v.04c0 1.59 1.13 2.918 2.633 3.22-.276.074-.566.114-.865.114-.21 0-.416-.02-.617-.058.418 1.304 1.63 2.253 3.067 2.28-1.124.88-2.54 1.404-4.077 1.404-.265 0-.526-.015-.783-.045 1.453.93 3.178 1.474 5.032 1.474 6.038 0 9.34-5 9.34-9.338 0-.143-.004-.284-.01-.425.64-.463 1.198-1.04 1.638-1.7z" fill-rule="nonzero"/></symbol>
  <symbol id="vimeo" viewBox="0 0 16 16"><path d="M15.992 4.275c-.07 1.56-1.16 3.697-3.263 6.41-2.176 2.832-4.017 4.248-5.522 4.248-.933 0-1.722-.862-2.367-2.588L3.55 7.6c-.48-1.724-.993-2.587-1.542-2.587-.12 0-.538.252-1.255.755L0 4.796C.79 4.1 1.568 3.406 2.335 2.71c1.053-.912 1.844-1.39 2.37-1.44 1.246-.12 2.012.733 2.3 2.56.31 1.97.526 3.194.647 3.673.36 1.634.754 2.45 1.185 2.45.335 0 .838-.53 1.51-1.59.67-1.06 1.028-1.866 1.076-2.42.096-.915-.263-1.374-1.077-1.374-.383 0-.778.087-1.185.262.788-2.58 2.29-3.834 4.508-3.762 1.644.048 2.42 1.116 2.324 3.205z" fill-rule="nonzero"/></symbol>
  <symbol id="youtube" viewBox="0 0 16 16"><path d="M0 7.345c0-1.294.16-2.59.16-2.59s.156-1.1.636-1.587c.608-.637 1.408-.617 1.764-.684C3.84 2.36 8 2.324 8 2.324s3.362.004 5.6.166c.314.038.996.04 1.604.678.48.486.636 1.588.636 1.588S16 6.05 16 7.346v1.258c0 1.296-.16 2.59-.16 2.59s-.156 1.102-.636 1.588c-.608.638-1.29.64-1.604.678-2.238.162-5.6.166-5.6.166s-4.16-.037-5.44-.16c-.356-.067-1.156-.047-1.764-.684-.48-.487-.636-1.587-.636-1.587S0 9.9 0 8.605v-1.26zm6.348 2.73V5.58l4.323 2.255-4.32 2.24h-.002z"/></symbol>
  <symbol id="link" viewBox="0 0 16 16"><path d="M5.86 12.7l-.81.8c-.7.7-1.84.7-2.54 0a1.75 1.75 0 0 1 0-2.5l2.98-2.96c.61-.61 1.77-1.52 2.62-.68a1 1 0 1 0 1.4-1.4c-1.44-1.43-3.57-1.17-5.42.67L1.1 9.6a3.72 3.72 0 0 0 0 5.32 3.78 3.78 0 0 0 5.34 0l.8-.8a1 1 0 1 0-1.39-1.42zm9.03-11.5c-1.55-1.53-3.7-1.6-5.14-.19l-1 1a1 1 0 1 0 1.39 1.41l1-1c.75-.74 1.72-.43 2.35.2a1.75 1.75 0 0 1 0 2.5l-3.17 3.15c-1.46 1.45-2.14.77-2.43.48a1 1 0 0 0-1.4 1.4c.67.67 1.43 1 2.23 1 .98 0 2.01-.5 3-1.47l3.17-3.15a3.72 3.72 0 0 0 0-5.32z"/></symbol>
  <symbol id="email" viewBox="0 0 16 11"><path fill-rule="evenodd" d="M1.33 0h13.34L8 5 1.33 0zM16 0v11H0V0l8 6 8-6z"/></symbol>
  <symbol id="nav" viewBox="0 0 16 11"><path d="M0 12h16v-2H0v2zm0-5h16V5H0v2zm0-7v2h16V0H0z"/></symbol>
.3-20-.8v-69.7c6.4-.6 15-.6 22.5-.6 23.3 0 37.2 12.2 37.2 34.5 0 21.9-15 36.6-39.7 36.6z"/></symbol>




  <symbol id="google-scholar" viewBox="0 0 1755 1755"><path transform="translate(-100 1610) scale(1 -1)" d="M1624.144 1414.115v124.49l90.354 70.538h-977.782l-590.432-513.25h391.57c-0.71-9.714-1.002-18.498-1.002-28.46 0-95.29 33.002-174.11 99.072-237.078 66.070-63.072 147.434-94.39 243.778-94.39 22.506 0 44.574 1.682 66.004 4.682-13.29-29.718-19.998-57.248-19.998-82.936 0-45.144 20.568-93.396 61.564-144.648-179.354-12.208-311.136-44.492-395.14-96.746-48.142-29.71-86.858-67.218-116.070-112.142-29.214-45.254-43.784-93.784-43.784-146.11 0-44.106 9.428-83.822 28.43-119.142s43.784-64.322 74.57-86.784c30.712-22.71 66.144-41.604 106.144-57 39.928-15.286 79.572-26.142 119.136-32.286 39.438-6.136 78.65-9.136 117.512-9.136 61.572 0 123.216 7.928 185.358 23.712 61.996 15.93 120.138 39.504 174.496 70.824 54.214 31.108 98.356 73.538 132.214 126.712 33.784 53.394 50.718 113.394 50.718 179.822 0 50.358-10.284 96.176-30.858 137.786-20.428 41.472-45.43 75.616-75.212 102.144-29.718 26.572-59.428 50.996-89.212 72.996-29.718 22.148-54.858 44.574-75.286 67.716-20.502 23.070-30.786 45.962-30.786 68.498 0 22.498 7.928 44.214 23.844 65.214 15.792 21.072 35.080 41.362 57.644 60.826 22.572 19.426 45.144 40.996 67.642 64.608 22.498 23.53 41.786 54.068 57.644 91.466 15.93 37.39 23.786 79.748 23.786 126.888 0 61.498-11.644 111.82-34.502 152.29-2.714 4.674-5.566 8.244-8.572 13.816l260.148 213.358v-78.256c-33.8-4.25-30.282-24.438-30.282-48.618v-588.192c0-27.238 22.286-49.526 49.526-49.526h18.234c27.238 0 49.526 22.286 49.526 49.526v588.192c0 24.122 3.554 44.288-29.996 48.596zM1133.356 397.071c5.216-3.43 16.932-12.712 35.284-27.604 18.512-14.826 31.072-26.038 37.786-33.894 6.576-7.606 16.362-19.040 29.148-34.502 12.858-15.426 21.57-28.818 26.142-39.928 4.572-11.322 9.216-24.964 13.926-40.894 4.506-15.748 6.788-31.89 6.788-48.282 0-77.934-30.004-135.68-89.856-173.070-60-37.398-131.504-56.108-214.572-56.108-41.998 0-83.214 4.996-123.714 14.606-40.426 9.676-79.14 24.394-116.070 43.894-36.93 19.464-66.64 46.644-89.146 81.356-22.572 34.926-33.858 75.038-33.858 119.998 0 47.178 12.786 88.182 38.502 122.998 25.57 34.86 59.144 61.22 100.718 79.156 41.428 18.038 83.426 30.822 125.996 38.392 42.57 7.782 85.928 11.68 130.004 11.68 20.428 0 36.278-1.148 47.564-3.182 2.078-1.002 13.86-9.464 35.358-25.432 21.504-15.828 34.86-25.578 40.002-29.184zM1118.004 856.855c-33.858-40.5-81.072-60.746-141.502-60.746-54.214 0-101.932 21.782-142.928 65.426-41.142 43.534-70.502 92.928-88.43 148.254-18 55.354-26.998 109.642-26.998 162.962 0 62.602 16.436 115.894 49.284 159.89 32.856 44.112 79.996 66.216 141.43 66.216 54.286 0 102.282-23.032 143.712-69.288 41.574-46.102 71.358-97.888 89.22-155.282 17.928-57.322 26.85-112.136 26.85-164.498 0-61.47-16.926-112.502-50.636-152.934z"/></symbol>

 <symbol id="researchgate" viewBox="0 0 1755 1755"><path transform="translate(-100 1610) scale(1 -1)" d="M1194.642 23.429c-93.996 102.282-219.786 266.57-324.426 452.286 172.852 40.426 300.852 202.716 300.852 364.858 0 239.002-185.636 349.93-428.998 349.93-125.784 0-226.144-6.356-319.854-6.356-85.504 0-170.934 0-224.146 2.070v-61.93l80.998-14.856c55.712-10.716 87.428-36.148 87.428-168.572v-840.646c0-132.36-31.714-157.93-87.428-168.5l-80.998-15.14v-61.718c57.57 2.070 157.856 6.29 258.216 6.29 96 0 219.786-4.22 273.144-6.29v61.718l-111.002 15.14c-57.564 8.36-87.574 36.14-87.574 168.5v356.286c51.214-4.286 96-4.286 164.432-4.286 130.144-232.5 253.922-407.566 324.214-488.572 64.138-76.924 162.216-125.93 285.996-125.93 36.22 0 74.584 6.364 98.004 17.144v55.362c-76.786 0-153.57 53.424-208.86 113.21zM684.5 548.287c-72.572 0-104.426 1.93-153.644 6.568v535.362c49.218 4.286 115.214 4.286 172.858 4.286 179.354 0 285.93-94.004 285.93-264.572 0-168.572-115.142-281.644-305.144-281.644zM1335.86 1086.859c-2.144 11.212-4.074 24.284-5.786 39.358-1.784 15.214-2.934 33.068-3.642 54.14-0.716 20.926-1.002 46.496-1.002 75.784 0 29.432 0.286 54.646 1.002 75.644 0.71 21.072 1.858 39.146 3.642 54.214 1.712 15.002 3.642 28.146 5.786 39.358 2.070 11.286 4.784 22.002 8.288 32.498 18.352 55.5 48.428 97.214 90.5 125.22 41.998 28 93.498 42.064 154.638 42.064 31.43 0 59.934-3.642 85.218-11.066 25-7.358 47.426-17.504 67.21-30.5 19.5-12.858 36.36-28 50.286-45.144 14.284-17.21 25.782-35.57 34.786-55.288 3.496-6.282 2.502-11.286-3.072-14.782l-77.642-31.926c-6.576-3.504-11.212-1.718-14.862 5.216-17.422 32.286-32.286 53.496-56.708 68.922-24.714 15.36-47.572 22.646-85.218 22.646-40.93 0-59.216-8.14-84.854-26.5-25.432-18-44.076-40.646-55.076-75.14-2.208-6.218-4.214-13.934-6.568-23.004-1.93-9.216-3.504-20.502-4.498-33.712-1.002-13.216-1.93-29.572-2.786-48.86-0.57-19.288-0.856-42.716-0.856-69.858 0-27.282 0.286-50.71 0.856-69.998 0.856-19.214 1.784-35.57 2.786-48.786 0.994-13.356 2.568-24.568 4.498-33.858 2.356-8.93 4.36-16.64 6.568-22.93 11-34.356 26.72-53.138 49.862-68.214 22.858-15.286 49.138-26.288 90.068-26.288 36.36 0 69.646 10.358 91.356 26.148 21.504 15.784 39.358 36.638 47.36 65.142 3.504 12.002 8.002 26.932 11.074 45.216 2.786 18.286 2.786 37.64 2.786 64.352 0 4.22-2.362 6.364-6.29 6.364h-124.358c-7 0-10.43 3.424-10.43 10.422v71.286c0 7.072 3.43 10.504 10.43 10.504h228.214c7.146 0 10.504-3.43 10.504-10.504v-60.928c0-32.286 0-62.216-3.358-89.93-3.218-27.714-7.57-51.712-13.070-69.208-17.43-54.792-45.070-93.792-87.428-122.858-42.504-29.286-97.288-45.070-156.79-45.070-61.14 0-112.64 14.066-154.638 41.998-42.072 28.284-72.148 69.786-90.5 125.286-3.504 10.496-6.218 21.284-8.288 32.57z"/></symbol>

 <symbol id="orcid" viewBox="0 0 1755 1755"><path transform="translate(-150 1610) scale(1 -1)" d="M1309.33 948.955c-25.234 11.776-49.078 19.676-71.68 23.406-22.528 3.876-58.66 5.706-108.69 5.706h-129.902v-540.598h133.194c51.932 0 92.306 3.584 121.124 10.678s52.81 16.018 72.046 26.99c19.236 10.898 36.864 24.284 52.882 40.302 51.274 52.078 76.946 117.76 76.946 197.194 0 78.044-26.332 141.75-79.068 191.050-19.456 18.286-41.838 33.426-66.852 45.276zM1024 1609.143c-484.79 0-877.714-392.996-877.714-877.714s392.924-877.714 877.714-877.714 877.714 392.996 877.714 877.714-392.924 877.714-877.714 877.714zM732.598 343.845h-104.010v726.82h104.010v-726.82zM680.522 1146.587c-39.424 0-71.534 31.89-71.534 71.534 0 39.35 32.036 71.46 71.534 71.46 39.57 0 71.606-32.036 71.606-71.46-0.074-39.716-32.036-71.534-71.606-71.534zM1534.83 567.589c-18.724-44.398-45.422-83.456-80.164-117.102-35.328-34.816-76.434-60.854-123.318-78.556-27.428-10.678-52.516-17.92-75.41-21.65-22.966-3.584-66.634-5.34-131.218-5.34h-229.888v725.724h245.028c98.962 0 177.078-14.702 234.716-44.398 57.564-29.622 103.278-73.362 137.29-130.852 34.012-57.564 51.054-120.394 51.054-188.27 0.074-48.714-9.436-95.232-28.086-139.556z"/></symbol>

  <symbol id="rg" viewBox="0 0 448 512"><path d="M0 32v448h448V32H0zm262.2 334.4c-6.6 3-33.2 6-50-14.2-9.2-10.6-25.3-33.3-42.2-63.6-8.9 0-14.7 0-21.4-.6v46.4c0 23.5 6 21.2 25.8 23.9v8.1c-6.9-.3-23.1-.8-35.6-.8-13.1 0-26.1.6-33.6.8v-8.1c15.5-2.9 22-1.3 22-23.9V225c0-22.6-6.4-21-22-23.9V193c25.8 1 53.1-.6 70.9-.6 31.7 0 55.9 14.4 55.9 45.6 0 21.1-16.7 42.2-39.2 47.5 13.6 24.2 30 45.6 42.2 58.9 7.2 7.8 17.2 14.7 27.2 14.7v7.3zm22.9-135c-23.3 0-32.2-15.7-32.2-32.2V167c0-12.2 8.8-30.4 34-30.4s30.4 17.9 30.4 17.9l-10.7 7.2s-5.5-12.5-19.7-12.5c-7.9 0-19.7 7.3-19.7 19.7v26.8c0 13.4 6.6 23.3 17.9 23.3 14.1 0 21.5-10.9 21.5-26.8h-17.9v-10.7h30.4c0 20.5 4.7 49.9-34 49.9zm-116.5 44.7c-9.4 0-13.6-.3-20-.8v-69.7c6.4-.6 15-.6 22.5-.6 23.3 0 37.2 12.2 37.2 34.5 0 21.9-15 36.6-39.7 36.6z"/></symbol>

  <symbol id="gs" viewBox="0 0 1755 1755"><path transform="translate(0 1610) scale(1 -1)" d="M896.76 1130.189c-27.618 30.838-59.618 46.19-95.802 46.19-40.952 0-72.382-14.738-94.288-44.15-21.906-29.322-32.864-64.848-32.864-106.584 0-35.548 5.998-71.738 18-108.64 11.958-36.886 31.524-69.814 58.954-98.838 27.334-29.096 59.144-43.616 95.284-43.616 40.288 0 71.76 13.502 94.332 40.492 22.476 26.954 33.756 60.98 33.756 101.962 0 34.904-5.954 71.454-17.906 109.664-11.894 38.262-31.752 72.784-59.466 103.52zM1658.858 1512.573c-64.358 64.424-141.86 96.57-232.572 96.57h-1097.142c-90.712 0-168.14-32.146-232.572-96.57-64.424-64.286-96.57-141.86-96.57-232.572v-1097.142c0-90.712 32.146-168.288 96.57-232.712 64.432-64.146 142-96.432 232.572-96.432h1097.142c90.712 0 168.214 32.286 232.572 96.57 64.432 64.432 96.644 141.86 96.644 232.572v1097.142c0 90.712-32.22 168.288-96.644 232.572zM1297.81 1154.159v-392.126c0-18.154-14.856-33.016-33.016-33.016h-12.156c-18.162 0-33.016 14.856-33.016 33.016v392.126c0 16.12-2.34 29.578 20.188 32.41v52.172l-173.43-142.24c2.004-3.716 3.906-6.092 5.712-9.208 15.242-26.976 23.004-60.526 23.004-101.53 0-31.43-5.238-59.662-15.858-84.598-10.57-24.928-23.428-45.29-38.43-60.972-15.002-15.74-30.048-30.128-45.092-43.074-15.046-12.976-27.904-26.506-38.436-40.55-10.614-14-15.894-28.474-15.894-43.476 0-15.024 6.854-30.288 20.524-45.67 13.62-15.426 30.376-30.376 50.19-45.144 19.85-14.666 39.658-30.946 59.472-48.662 19.858-17.694 36.52-40.456 50.14-68.096 13.722-27.744 20.568-58.288 20.568-91.86 0-44.288-11.294-84.282-33.806-119.882-22.58-35.446-51.998-63.73-88.144-84.472-36.242-20.882-75-36.6-116.334-47.214-41.42-10.518-82.52-15.806-123.568-15.806-25.908 0-52.048 1.996-78.336 6.1-26.382 4.096-52.81 11.33-79.426 21.526-26.668 10.262-50.286 22.864-70.758 37.998-20.524 14.98-37.046 34.312-49.716 57.856-12.668 23.552-18.958 50.022-18.958 79.426 0 34.882 9.714 67.24 29.192 97.404 19.478 29.944 45.282 54.952 77.378 74.76 55.998 34.838 143.858 56.364 263.432 64.498-27.334 34.172-41.048 66.334-41.048 96.432 0 17.122 4.476 35.474 13.334 55.288-14.284-1.996-28.994-3.124-44.002-3.124-64.234 0-118.476 20.882-162.524 62.932-44.046 41.976-66.048 94.522-66.048 158.048 0 6.642 0.19 12.492 0.672 18.974h-261.046l393.618 342.17h651.856l-60.24-47.024v-82.996c22.368-2.874 20.004-16.318 20.004-32.394zM900.382 544.929c-7.52 1.36-18.088 2.122-31.708 2.122-29.382 0-58.288-2.596-86.666-7.782-28.38-5.046-56.378-13.568-83.998-25.592-27.722-11.952-50.096-29.528-67.146-52.766-17.144-23.208-25.666-50.542-25.666-81.994 0-29.974 7.52-56.714 22.572-80.004 15.002-23.142 34.808-41.26 59.428-54.236 24.62-12.998 50.432-22.814 77.378-29.264 26.998-6.408 54.476-9.736 82.476-9.736 55.376 0 103.050 12.47 143.046 37.406 39.906 24.928 59.904 63.422 59.904 115.382 0 10.928-1.522 21.686-4.528 32.19-3.138 10.62-6.24 19.712-9.282 27.26-3.050 7.41-8.858 16.332-17.43 26.616-8.522 10.314-15.046 17.934-19.434 23.004-4.476 5.238-12.852 12.712-25.19 22.594-12.236 9.926-20.048 16.114-23.522 18.402-3.43 2.406-12.332 8.908-26.668 19.456-14.328 10.634-22.184 16.274-23.566 16.94z" /></symbol>

</svg>
  
